<?xml version="1.0" encoding="UTF-8" standalone="no"?>
<!-- Generator: Adobe Illustrator 22.1.0, SVG Export Plug-In . SVG Version: 6.00 Build 0)  -->

<svg
   version="1.1"
   id="Слой_1"
   x="0px"
   y="0px"
   viewBox="0 0 1000 1000"
   style="enable-background:new 0 0 1000 1000;"
   xml:space="preserve"
   sodipodi:docname="R_logo-3.svg"
   inkscape:version="1.1 (c4e8f9ed74, 2021-05-24)"
   xmlns:inkscape="http://www.inkscape.org/namespaces/inkscape"
   xmlns:sodipodi="http://sodipodi.sourceforge.net/DTD/sodipodi-0.dtd"
   xmlns="http://www.w3.org/2000/svg"
   xmlns:svg="http://www.w3.org/2000/svg"><defs
   id="defs39" /><sodipodi:namedview
   id="namedview37"
   pagecolor="#ffffff"
   bordercolor="#666666"
   borderopacity="1.0"
   inkscape:pageshadow="2"
   inkscape:pageopacity="0.0"
   inkscape:pagecheckerboard="0"
   showgrid="false"
   inkscape:snap-bbox="false"
   inkscape:snap-page="false"
   inkscape:zoom="0.753"
   inkscape:cx="234.39575"
   inkscape:cy="500"
   inkscape:window-width="1920"
   inkscape:window-height="1080"
   inkscape:window-x="0"
   inkscape:window-y="0"
   inkscape:window-maximized="1"
   inkscape:current-layer="Слой_1" />
<style
   type="text/css"
   id="style2">
	.st0{fill:#00FFFF;}
	.st1{fill:#FFFFFF;}
</style>

<g
   id="g34">
	<rect
   x="278"
   y="157"
   class="st0"
   width="390"
   height="57"
   id="rect6" />
	<polygon
   class="st1"
   points="707,236 707,293 576,293 576,264.5 410,264.5 410,293 278,293 278,236  "
   id="polygon8"
   style="fill:#000000;fill-opacity:1" />
	<rect
   x="278"
   y="317"
   class="st0"
   width="133"
   height="57"
   id="rect10" />
	<rect
   x="576.5"
   y="317"
   class="st0"
   width="161.5"
   height="57"
   id="rect12" />
	<rect
   x="278"
   y="478"
   class="st0"
   width="390"
   height="57"
   id="rect14" />
	<rect
   x="278"
   y="558"
   class="st1"
   width="141"
   height="57"
   id="rect16"
   style="fill:#000000;fill-opacity:1" />
	<rect
   x="278"
   y="639"
   class="st0"
   width="172"
   height="57"
   id="rect18" />
	<rect
   x="278"
   y="801"
   class="st0"
   width="172"
   height="57"
   id="rect20" />
	<rect
   x="566"
   y="801"
   class="st0"
   width="172"
   height="57"
   id="rect22" />
	<rect
   x="566"
   y="720"
   class="st1"
   width="172"
   height="57"
   id="rect24"
   style="fill:#000000;fill-opacity:1" />
	<rect
   x="278"
   y="720"
   class="st1"
   width="172"
   height="57"
   id="rect26"
   style="fill:#000000;fill-opacity:1" />
	<rect
   x="566"
   y="639"
   class="st0"
   width="172"
   height="57"
   id="rect28" />
	<rect
   x="565.6"
   y="558"
   class="st1"
   width="141.4"
   height="57"
   id="rect30"
   style="fill:#000000;fill-opacity:1" />
	<polygon
   class="st1"
   points="707,455 707,398 576,398 576,426.5 410,426.5 410,398 278,398 278,455  "
   id="polygon32"
   style="fill:#000000;fill-opacity:1" />
</g>
<path
   style="fill:none;stroke-width:1.32802"
   d="m 278.22045,264.94024 v -27.88845 h 213.81142 213.81142 v 27.88845 27.88845 h -64.40903 -64.40903 v -14.60824 -14.60823 h -83.66534 -83.66533 v 14.60823 14.60824 H 343.9575 278.22045 Z"
   id="path97" /></svg>
